<?xml version="1.0" encoding="UTF-8"?>
<svg id="Capa_2" data-name="Capa 2" xmlns="http://www.w3.org/2000/svg" viewBox="0 0 284.14 160.26">
  <defs>
    <style>
      .cls-1 {
        letter-spacing: -.03em;
      }

      .cls-2 {
        letter-spacing: -.03em;
      }

      .cls-3 {
        fill: #f7ab14;
      }

      .cls-3, .cls-4, .cls-5, .cls-6, .cls-7 {
        stroke-width: 0px;
      }

      .cls-8 {
        letter-spacing: -.03em;
      }

      .cls-4 {
        fill: #114380;
      }

      .cls-5 {
        fill: #fff;
      }

      .cls-9 {
        letter-spacing: -.08em;
      }

      .cls-6 {
        fill: #e53439;
      }

      .cls-10 {
        fill: #0a2c54;
        font-family: HelveticaNeue-ExtBlackCond, 'Helvetica Neue';
        font-size: 32.78px;
        font-weight: 800;
      }

      .cls-7 {
        fill: #071938;
      }

      .cls-11 {
        letter-spacing: -.07em;
      }

      .cls-12 {
        letter-spacing: 0em;
      }
    </style>
  </defs>
  <g id="Capa_2-2" data-name="Capa 2">
    <g>
      <rect class="cls-5" y="43.97" width="284.14" height="116.3"/>
      <rect class="cls-4" x="5.81" y="51.68" width="103.71" height="101.56"/>
      <path class="cls-3" d="M21.35,124.17c-.88,0-1.73-.47-2.17-1.31-1.63-3.06-2.88-6.32-3.73-9.68-.87-3.46-1.31-7.03-1.31-10.63,0-5.85,1.15-11.53,3.41-16.87,2.18-5.16,5.31-9.8,9.29-13.78,3.98-3.98,8.61-7.11,13.78-9.29,5.35-2.26,11.02-3.41,16.87-3.41s11.53,1.15,16.87,3.41c5.16,2.18,9.8,5.31,13.78,9.29,3.98,3.98,7.1,8.62,9.29,13.78,2.26,5.35,3.41,11.02,3.41,16.87,0,6.65-1.47,13.04-4.36,18.98-.59,1.22-2.07,1.73-3.29,1.13-1.22-.6-1.73-2.07-1.13-3.29,2.57-5.26,3.87-10.92,3.87-16.82,0-21.19-17.24-38.43-38.43-38.43s-38.43,17.24-38.43,38.43c0,6.27,1.54,12.5,4.47,18,.64,1.2.18,2.69-1.02,3.32-.37.2-.76.29-1.15.29"/>
      <path class="cls-5" d="M23.3,126.51l3.55-1.9.58.76c.32.42.48.78.49,1.08,0,.29-.15.56-.46.8-.4.3-.78.42-1.16.36-.38-.06-.73-.3-1.05-.72-.01-.01-.03-.03-.04-.06-.02-.03-.03-.05-.04-.06l-1.18.64-.67-.88ZM26.73,125.91l-.78.42s.01.03.02.04c0,.01.02.03.04.05.1.13.21.19.33.2.12,0,.26-.05.41-.16.08-.06.13-.14.13-.22,0-.09-.03-.18-.11-.28l-.03-.04Z"/>
      <path class="cls-5" d="M24.89,128.65l3.97-1.5.86.99-2.8,2.83-.74-.84.44-.38-.43-.49-.56.26-.75-.86ZM26.96,128.9l.29.33,1.12-.96-1.41.63Z"/>
      <path class="cls-5" d="M27.13,131.2l3.24-2.4.67.66c.42.41.66.75.71,1.02.05.26-.05.53-.32.8-.23.23-.46.37-.71.42-.25.05-.49,0-.72-.13l-.87,1.58-.84-.82.95-1.32-1.3.97-.79-.78ZM29.72,130.66l.04.04c.12.12.25.17.39.16.14-.01.28-.09.42-.23.08-.08.12-.16.11-.24,0-.08-.05-.16-.14-.25,0,0-.01-.01-.03-.02-.01-.01-.02-.02-.03-.03l-.77.57Z"/>
      <polygon class="cls-5" points="30.62 134.46 29.77 133.74 32.05 131.78 31.55 131.35 32.33 130.69 34.18 132.27 33.41 132.93 32.9 132.51 30.62 134.46"/>
      <polygon class="cls-5" points="31.54 135.22 34.45 132.44 35.33 133.11 32.42 135.89 31.54 135.22"/>
      <path class="cls-5" d="M32.92,136.3l2.74-2.95.7.47c.44.3.7.62.77.96.07.35-.04.73-.33,1.16-.22.33-.49.62-.8.86-.31.24-.6.39-.88.44-.22.05-.44.04-.65-.02-.21-.06-.5-.21-.86-.46l-.69-.47ZM34.52,136.19s.01.01.02.02c0,0,.02.01.03.02.05.04.11.06.18.07.07,0,.13,0,.2-.02.1-.04.25-.15.45-.34.2-.19.37-.39.52-.61.1-.14.14-.26.14-.36,0-.1-.05-.19-.15-.26l-1.39,1.49Z"/>
      <path class="cls-5" d="M36.76,138.85c-.33-.18-.52-.45-.59-.8-.07-.35.01-.72.23-1.11.18-.32.4-.61.65-.87.26-.26.51-.45.77-.57.25-.12.5-.18.73-.18.24,0,.47.07.71.21.33.19.53.45.6.8.06.34-.02.72-.24,1.12-.18.32-.4.61-.65.87-.25.25-.51.45-.77.57-.25.12-.49.18-.73.18-.24,0-.48-.07-.71-.21M37.34,137.56c-.07.13-.11.23-.11.31,0,.08.04.14.12.18.07.04.14.04.22.02.08-.03.17-.09.28-.18.14-.12.29-.29.44-.49.16-.2.29-.4.4-.59.07-.13.11-.24.11-.31,0-.08-.03-.14-.1-.18-.07-.04-.15-.05-.23-.03-.08.02-.17.09-.28.18-.14.13-.29.3-.45.5-.16.2-.29.4-.4.59"/>
      <path class="cls-5" d="M39.82,140.38l2.13-3.42.77.33c.49.21.8.47.94.8.14.33.1.73-.1,1.2-.16.37-.36.7-.62.99-.26.29-.52.49-.78.6-.21.09-.42.12-.64.1-.22-.02-.53-.11-.93-.28l-.77-.33ZM41.38,139.97s.01,0,.02.01c0,0,.02,0,.03.01.06.03.12.04.19.03.07,0,.13-.03.19-.06.09-.06.22-.19.38-.42.16-.22.29-.46.39-.7.07-.16.09-.29.07-.38-.02-.1-.09-.17-.2-.23l-1.08,1.73Z"/>
      <polygon class="cls-5" points="42.77 141.61 44.66 138.06 46.52 138.7 46.06 139.56 45.25 139.28 45.01 139.73 45.74 139.98 45.3 140.82 44.57 140.57 44.31 141.05 45.12 141.33 44.63 142.25 42.77 141.61"/>
      <polygon class="cls-5" points="47.27 139.96 46 142.68 45.07 142.45 46.93 138.82 48.19 139.14 47.69 141.17 48.86 139.31 50.11 139.62 48.81 143.39 47.88 143.16 48.95 140.39 47.32 143.02 46.59 142.83 47.27 139.96"/>
      <path class="cls-5" d="M50.73,143.8c-.37-.06-.65-.24-.83-.54-.18-.31-.24-.68-.17-1.13.06-.36.16-.71.31-1.04.15-.33.32-.6.52-.81.19-.2.4-.34.63-.42.23-.08.47-.1.74-.06.38.06.66.24.84.54.18.3.24.68.17,1.13-.06.36-.16.71-.31,1.04-.15.33-.32.6-.52.81-.19.2-.4.34-.62.42-.23.08-.47.1-.74.06M50.82,142.39c-.02.15-.02.26,0,.33.03.07.09.12.17.13.08.01.15,0,.22-.06.07-.05.13-.14.2-.27.09-.17.17-.37.24-.61.08-.24.13-.47.17-.7.02-.15.02-.26,0-.33-.03-.07-.08-.12-.16-.13-.08-.01-.16,0-.23.06-.07.05-.13.14-.2.27-.09.17-.17.38-.25.62-.08.24-.13.47-.17.69M52.17,139.54l-.43-.07.45-.79.7.11-.72.75Z"/>
      <path class="cls-5" d="M55.46,141.28c-.06-.04-.12-.07-.18-.09-.06-.02-.12-.03-.18-.04-.26-.02-.48.08-.65.32-.18.23-.28.56-.32.96-.02.26,0,.46.09.6.08.14.22.21.42.23.05,0,.1,0,.15,0,.06,0,.11-.02.18-.03l-.25.94c-.08.02-.16.04-.25.05-.09,0-.19,0-.31,0-.45-.04-.78-.2-.99-.48-.21-.28-.3-.67-.26-1.16.06-.78.3-1.39.69-1.83.4-.44.89-.64,1.48-.59.11,0,.21.03.32.06.1.03.2.06.3.11l-.26.97Z"/>
      <path class="cls-5" d="M55.25,144.24l.69-3.97h.94c.59.02.99.11,1.21.26.22.16.33.42.32.8,0,.32-.08.59-.22.8s-.35.34-.61.4l.46,1.75-1.18-.02-.23-1.61-.27,1.6-1.11-.02ZM56.74,142.06h.06c.17,0,.3-.05.39-.15.09-.11.14-.26.14-.46,0-.11-.03-.2-.08-.25-.06-.06-.15-.08-.27-.08,0,0-.02,0-.04,0s-.03,0-.04,0l-.16.95Z"/>
      <path class="cls-5" d="M58.34,144.32l1.17-4.08,1.31-.11.6,3.94-1.12.09-.04-.58-.66.05-.13.6-1.14.09ZM59.77,142.82l.44-.04-.1-1.47-.34,1.51Z"/>
      <polygon class="cls-5" points="63.13 143.88 62.03 144.03 62.1 141.02 61.45 141.11 61.48 140.09 63.9 139.77 63.87 140.79 63.21 140.88 63.13 143.88"/>
      <path class="cls-5" d="M63.82,143.82l.69-4.19,1.29-.25,1.05,3.85-1.1.22-.11-.57-.64.13-.06.61-1.12.22ZM65.07,142.16l.44-.09-.27-1.45-.16,1.53Z"/>
      <path class="cls-5" d="M70.11,139.23c-.07-.01-.14-.02-.2-.02s-.12.01-.18.03c-.25.08-.41.26-.49.54-.08.28-.06.62.06,1.01.08.25.18.42.31.52.13.09.29.11.47.05.05-.01.09-.03.14-.06s.1-.06.16-.1l.12.97c-.06.05-.14.1-.22.14-.08.04-.18.08-.29.11-.43.13-.8.11-1.1-.07-.3-.18-.53-.51-.68-.98-.23-.74-.24-1.4-.04-1.96.21-.56.59-.93,1.16-1.1.1-.03.21-.05.31-.07.1-.01.21-.02.32,0l.12.99Z"/>
      <path class="cls-5" d="M72.34,141.63c-.35.14-.68.12-.99-.05-.31-.17-.55-.47-.71-.89-.13-.34-.22-.7-.26-1.06-.04-.36-.02-.68.04-.96.07-.27.18-.5.33-.68.16-.18.36-.32.61-.42.36-.14.69-.12,1,.05.31.17.54.47.71.9.13.35.22.7.26,1.05.04.35.02.68-.04.96-.06.27-.17.49-.33.67-.16.18-.36.32-.61.42M71.71,140.36c.05.14.11.23.17.28.06.05.13.06.21.03.07-.03.12-.08.16-.16.03-.08.04-.19.04-.33,0-.19-.04-.4-.1-.65-.05-.25-.12-.47-.2-.68-.05-.14-.11-.23-.17-.29-.06-.05-.13-.06-.2-.03-.08.03-.14.08-.17.16-.03.08-.05.19-.04.33.01.19.04.41.1.66.06.25.12.48.2.68"/>
      <polygon class="cls-5" points="74.11 140.84 72.99 136.97 74 136.5 74.84 139.4 75.58 139.06 75.86 140.02 74.11 140.84"/>
      <path class="cls-5" d="M77.42,139.29c-.33.18-.66.21-.99.08s-.61-.39-.83-.79c-.18-.32-.31-.66-.4-1.01-.08-.35-.11-.67-.08-.96.03-.28.11-.52.24-.71.13-.2.31-.37.55-.5.34-.18.67-.21.99-.09.33.13.6.39.83.79.18.32.31.66.4,1.01.08.35.11.67.08.96-.02.27-.1.51-.23.71-.13.2-.31.37-.55.5M76.62,138.13c.07.13.14.22.21.26.07.04.14.04.22,0,.07-.04.11-.1.13-.18.02-.08.02-.19,0-.33-.03-.18-.09-.39-.18-.63-.09-.24-.19-.45-.3-.65-.07-.13-.14-.22-.21-.26-.07-.04-.14-.04-.21,0-.08.04-.12.1-.15.18-.02.08-.02.19,0,.33.04.19.1.4.19.64.09.24.18.46.29.65"/>
      <polygon class="cls-5" points="78.65 135.04 79.84 137.8 79.05 138.34 77.57 134.53 78.65 133.8 79.83 135.53 79.21 133.42 80.28 132.69 82.24 136.17 81.44 136.71 80.09 134.07 80.97 137.03 80.34 137.46 78.65 135.04"/>
      <path class="cls-5" d="M82.69,135.82l-2.04-3.47.79-.65c.38-.32.71-.49.97-.51.26-.03.49.08.7.33.17.2.25.41.24.62,0,.21-.1.44-.28.66.2-.09.39-.11.57-.07.18.04.34.14.47.31.12.14.2.3.25.48.05.18.05.35.01.53-.03.17-.1.32-.21.47s-.27.32-.5.51l-.96.79ZM82.28,133s.03-.02.04-.03c.01,0,.03-.03.06-.05.09-.08.15-.17.16-.27.01-.1-.02-.2-.1-.29-.06-.08-.14-.12-.21-.12-.08,0-.16.03-.24.1,0,0-.02.01-.03.03-.01.01-.02.02-.03.02l.35.6ZM83.12,134.4s.03-.02.05-.03c.02-.01.04-.03.06-.05.1-.08.15-.18.15-.29,0-.11-.06-.23-.16-.35-.08-.1-.16-.15-.25-.16-.09,0-.18.03-.28.11l-.03.02.46.75Z"/>
      <polygon class="cls-5" points="85.16 133.77 82.92 130.42 83.74 129.67 85.98 133.02 85.16 133.77"/>
      <path class="cls-5" d="M86.21,132.85l-1.83-3.84.91-.94,3.06,2.56-.78.81-.42-.41-.46.47.3.53-.79.82ZM86.29,130.77l.31-.32-1.05-1.03.74,1.35Z"/>
      <polygon class="cls-5" points="88.61 130.36 85.95 127.34 86.6 126.55 88.47 127.63 87.06 125.99 87.66 125.27 90.33 128.28 89.68 129.07 87.85 128.05 89.22 129.63 88.61 130.36"/>
      <path class="cls-5" d="M91.64,126.63c-.21.31-.5.48-.85.51-.35.03-.72-.08-1.09-.34-.3-.21-.57-.46-.8-.73-.23-.28-.4-.55-.5-.82-.1-.26-.13-.51-.1-.75.03-.24.12-.46.27-.69.22-.31.5-.49.85-.52.35-.03.71.08,1.09.35.3.21.57.46.8.73.23.28.4.55.5.82.1.26.13.5.11.74-.03.24-.12.47-.27.69M90.41,125.93c.12.09.22.13.3.14.08,0,.14-.03.19-.1.04-.06.06-.14.04-.22s-.07-.18-.16-.3c-.11-.15-.26-.31-.44-.49-.18-.17-.37-.32-.55-.45-.12-.09-.22-.13-.3-.14-.08,0-.14.02-.19.08-.05.07-.07.15-.05.23.02.08.07.18.15.29.12.15.27.32.45.5.18.18.37.33.55.45"/>
      <path class="cls-3" d="M38.54,115.74l4.83-39.13h20.42s20.48,1.17,18.48,25.95c-2.94,26.07-22.83,26.54-31.01,26.78l1.18-11.89s14.48,2.06,15.89-15.48c1.41-16.24-13.18-13.12-13.18-13.12l-3.35,26.83-13.24.06Z"/>
      <path class="cls-6" d="M51.19,116.98l-1.59,12.36h-6.64c-3.11,0-5.52-2.71-5.17-5.79l.75-6.56h12.65Z"/>
      <rect class="cls-3" width="284.14" height="43.97"/>
      <path class="cls-4" d="M161.64,142.81h-24.19v-57.21h-16.33v-15.24h3.14c8.95,0,18.39-3.75,19.96-13.18h17.42v85.64Z"/>
      <path class="cls-4" d="M173.13,65.64c4.96-6.17,12.46-8.47,23.46-8.47s18.51,2.3,23.47,8.47c5.08,6.53,6.41,15.24,6.41,35.2s-1.33,28.67-6.41,35.2c-4.96,6.17-12.46,8.47-23.47,8.47s-18.51-2.3-23.46-8.47c-5.08-6.53-6.41-15.24-6.41-35.2s1.33-28.67,6.41-35.2ZM201.43,76.53c-.48-2.42-1.81-4.11-4.84-4.11s-4.35,1.69-4.84,4.11c-.48,2.54-.85,13.18-.85,24.31s.36,21.77.85,24.31c.48,2.42,1.81,4.11,4.84,4.11s4.35-1.69,4.84-4.11c.48-2.54.85-13.19.85-24.31s-.36-21.77-.85-24.31Z"/>
      <path class="cls-4" d="M266.87,142.81h-24.19v-57.21h-16.33v-15.24h3.14c8.95,0,18.38-3.75,19.96-13.18h17.42v85.64Z"/>
      <text class="cls-10" transform="translate(19.92 34.09)"><tspan class="cls-2" x="0" y="0">VO</tspan><tspan class="cls-9" x="33.92" y="0">T</tspan><tspan class="cls-2" x="46.38" y="0">A</tspan><tspan class="cls-11" x="64.24" y="0"> </tspan><tspan class="cls-1" x="70.57" y="0">A LA</tspan><tspan class="cls-8" x="128.09" y="0"> </tspan><tspan class="cls-1" x="135.62" y="0">CÁMAR</tspan><tspan class="cls-12" x="230.41" y="0">A</tspan></text>
      <rect class="cls-7" x="202.28" y="8.51" width="2.1" height="176.02" transform="translate(9.76 211.37) rotate(-56.07)"/>
      <rect class="cls-7" x="115.7" y="98.12" width="176.67" height="2.1" transform="translate(-20.9 128.71) rotate(-33.4)"/>
    </g>
  </g>
</svg>